<mxfile host="app.diagrams.net" agent="Mozilla/5.0 (X11; Linux x86_64) AppleWebKit/537.36 (KHTML, like Gecko) Chrome/132.0.0.0 Safari/537.36" version="26.2.9">
  <diagram name="Page-1" id="fxcsWgpGUYQy39GgudwH">
    <mxGraphModel dx="1132" dy="642" grid="1" gridSize="10" guides="1" tooltips="1" connect="1" arrows="1" fold="1" page="1" pageScale="1" pageWidth="3300" pageHeight="4681" math="0" shadow="0">
      <root>
        <mxCell id="0" />
        <mxCell id="1" parent="0" />
        <mxCell id="H8H1YPhDM66-B2P9FcZS-3" value="name" style="ellipse;whiteSpace=wrap;html=1;fillColor=#fff2cc;strokeColor=#d6b656;gradientColor=#ffd966;fontSize=15;" vertex="1" parent="1">
          <mxGeometry x="190" y="320" width="70" height="50" as="geometry" />
        </mxCell>
        <mxCell id="H8H1YPhDM66-B2P9FcZS-4" value="address" style="ellipse;whiteSpace=wrap;html=1;fillColor=#fff2cc;strokeColor=#d6b656;gradientColor=#ffd966;fontSize=15;" vertex="1" parent="1">
          <mxGeometry x="160" y="415" width="70" height="50" as="geometry" />
        </mxCell>
        <mxCell id="H8H1YPhDM66-B2P9FcZS-5" value="position" style="ellipse;whiteSpace=wrap;html=1;fillColor=#fff2cc;strokeColor=#d6b656;gradientColor=#ffd966;fontSize=15;" vertex="1" parent="1">
          <mxGeometry x="220" y="510" width="70" height="50" as="geometry" />
        </mxCell>
        <mxCell id="H8H1YPhDM66-B2P9FcZS-6" value="e_id" style="ellipse;whiteSpace=wrap;html=1;fillColor=#fff2cc;strokeColor=#d6b656;gradientColor=#ffd966;fontSize=15;" vertex="1" parent="1">
          <mxGeometry x="310" y="300" width="70" height="50" as="geometry" />
        </mxCell>
        <mxCell id="H8H1YPhDM66-B2P9FcZS-8" value="name" style="ellipse;whiteSpace=wrap;html=1;fillColor=#fff2cc;strokeColor=#d6b656;gradientColor=#ffd966;fontSize=15;" vertex="1" parent="1">
          <mxGeometry x="670" y="190" width="70" height="50" as="geometry" />
        </mxCell>
        <mxCell id="H8H1YPhDM66-B2P9FcZS-9" value="description" style="ellipse;whiteSpace=wrap;html=1;fillColor=#fff2cc;strokeColor=#d6b656;gradientColor=#ffd966;fontSize=15;" vertex="1" parent="1">
          <mxGeometry x="910" y="570" width="70" height="50" as="geometry" />
        </mxCell>
        <mxCell id="H8H1YPhDM66-B2P9FcZS-10" value="employee" style="whiteSpace=wrap;html=1;align=center;fillColor=#ffe6cc;strokeColor=#d79b00;" vertex="1" parent="1">
          <mxGeometry x="270" y="400" width="180" height="70" as="geometry" />
        </mxCell>
        <mxCell id="H8H1YPhDM66-B2P9FcZS-13" value="department" style="whiteSpace=wrap;html=1;align=center;fillColor=#ffe6cc;strokeColor=#d79b00;" vertex="1" parent="1">
          <mxGeometry x="690" y="280" width="180" height="70" as="geometry" />
        </mxCell>
        <mxCell id="H8H1YPhDM66-B2P9FcZS-14" value="project" style="whiteSpace=wrap;html=1;align=center;fillColor=#ffe6cc;strokeColor=#d79b00;" vertex="1" parent="1">
          <mxGeometry x="680" y="560" width="180" height="70" as="geometry" />
        </mxCell>
        <mxCell id="H8H1YPhDM66-B2P9FcZS-17" value="is in" style="shape=rhombus;perimeter=rhombusPerimeter;whiteSpace=wrap;html=1;align=center;fillColor=#dae8fc;strokeColor=#6c8ebf;" vertex="1" parent="1">
          <mxGeometry x="500" y="330" width="120" height="60" as="geometry" />
        </mxCell>
        <mxCell id="H8H1YPhDM66-B2P9FcZS-18" value="works on" style="shape=rhombus;perimeter=rhombusPerimeter;whiteSpace=wrap;html=1;align=center;fillColor=#dae8fc;strokeColor=#6c8ebf;" vertex="1" parent="1">
          <mxGeometry x="490" y="510" width="120" height="60" as="geometry" />
        </mxCell>
        <mxCell id="H8H1YPhDM66-B2P9FcZS-26" value="" style="endArrow=none;html=1;rounded=0;entryX=1;entryY=0;entryDx=0;entryDy=0;exitX=0;exitY=1;exitDx=0;exitDy=0;" edge="1" parent="1" source="H8H1YPhDM66-B2P9FcZS-17" target="H8H1YPhDM66-B2P9FcZS-10">
          <mxGeometry relative="1" as="geometry">
            <mxPoint x="530" y="370" as="sourcePoint" />
            <mxPoint x="590" y="345" as="targetPoint" />
          </mxGeometry>
        </mxCell>
        <mxCell id="H8H1YPhDM66-B2P9FcZS-27" value="N" style="resizable=0;html=1;whiteSpace=wrap;align=right;verticalAlign=bottom;" connectable="0" vertex="1" parent="H8H1YPhDM66-B2P9FcZS-26">
          <mxGeometry x="1" relative="1" as="geometry" />
        </mxCell>
        <mxCell id="H8H1YPhDM66-B2P9FcZS-28" value="" style="endArrow=none;html=1;rounded=0;entryX=0;entryY=0.5;entryDx=0;entryDy=0;exitX=0.771;exitY=0.312;exitDx=0;exitDy=0;exitPerimeter=0;" edge="1" parent="1" source="H8H1YPhDM66-B2P9FcZS-17" target="H8H1YPhDM66-B2P9FcZS-13">
          <mxGeometry relative="1" as="geometry">
            <mxPoint x="610" y="400" as="sourcePoint" />
            <mxPoint x="770" y="400" as="targetPoint" />
          </mxGeometry>
        </mxCell>
        <mxCell id="H8H1YPhDM66-B2P9FcZS-29" value="1" style="resizable=0;html=1;whiteSpace=wrap;align=right;verticalAlign=bottom;" connectable="0" vertex="1" parent="H8H1YPhDM66-B2P9FcZS-28">
          <mxGeometry x="1" relative="1" as="geometry" />
        </mxCell>
        <mxCell id="H8H1YPhDM66-B2P9FcZS-30" value="customer" style="ellipse;whiteSpace=wrap;html=1;fillColor=#fff2cc;strokeColor=#d6b656;gradientColor=#ffd966;fontSize=15;" vertex="1" parent="1">
          <mxGeometry x="770" y="660" width="70" height="50" as="geometry" />
        </mxCell>
        <mxCell id="H8H1YPhDM66-B2P9FcZS-31" value="" style="endArrow=none;html=1;rounded=0;entryX=1;entryY=1;entryDx=0;entryDy=0;" edge="1" parent="1" source="H8H1YPhDM66-B2P9FcZS-18" target="H8H1YPhDM66-B2P9FcZS-10">
          <mxGeometry relative="1" as="geometry">
            <mxPoint x="380" y="500" as="sourcePoint" />
            <mxPoint x="540" y="500" as="targetPoint" />
          </mxGeometry>
        </mxCell>
        <mxCell id="H8H1YPhDM66-B2P9FcZS-32" value="M" style="resizable=0;html=1;whiteSpace=wrap;align=right;verticalAlign=bottom;" connectable="0" vertex="1" parent="H8H1YPhDM66-B2P9FcZS-31">
          <mxGeometry x="1" relative="1" as="geometry">
            <mxPoint y="20" as="offset" />
          </mxGeometry>
        </mxCell>
        <mxCell id="H8H1YPhDM66-B2P9FcZS-36" value="" style="endArrow=none;html=1;rounded=0;entryX=0;entryY=0.5;entryDx=0;entryDy=0;exitX=0.727;exitY=0.796;exitDx=0;exitDy=0;exitPerimeter=0;" edge="1" parent="1" source="H8H1YPhDM66-B2P9FcZS-18" target="H8H1YPhDM66-B2P9FcZS-14">
          <mxGeometry relative="1" as="geometry">
            <mxPoint x="510" y="470" as="sourcePoint" />
            <mxPoint x="670" y="470" as="targetPoint" />
          </mxGeometry>
        </mxCell>
        <mxCell id="H8H1YPhDM66-B2P9FcZS-37" value="N" style="resizable=0;html=1;whiteSpace=wrap;align=right;verticalAlign=bottom;" connectable="0" vertex="1" parent="H8H1YPhDM66-B2P9FcZS-36">
          <mxGeometry x="1" relative="1" as="geometry" />
        </mxCell>
        <mxCell id="H8H1YPhDM66-B2P9FcZS-38" value="location" style="ellipse;whiteSpace=wrap;html=1;fillColor=#fff2cc;strokeColor=#d6b656;gradientColor=#ffd966;fontSize=15;" vertex="1" parent="1">
          <mxGeometry x="870" y="190" width="70" height="50" as="geometry" />
        </mxCell>
        <mxCell id="H8H1YPhDM66-B2P9FcZS-39" value="manager" style="ellipse;whiteSpace=wrap;html=1;fillColor=#fff2cc;strokeColor=#d6b656;gradientColor=#ffd966;fontSize=15;" vertex="1" parent="1">
          <mxGeometry x="900" y="365" width="70" height="50" as="geometry" />
        </mxCell>
        <mxCell id="H8H1YPhDM66-B2P9FcZS-40" value="" style="endArrow=none;html=1;rounded=0;exitX=0.696;exitY=0.917;exitDx=0;exitDy=0;exitPerimeter=0;entryX=0.292;entryY=0.002;entryDx=0;entryDy=0;entryPerimeter=0;" edge="1" parent="1" source="H8H1YPhDM66-B2P9FcZS-8" target="H8H1YPhDM66-B2P9FcZS-13">
          <mxGeometry relative="1" as="geometry">
            <mxPoint x="730" y="310" as="sourcePoint" />
            <mxPoint x="890" y="310" as="targetPoint" />
          </mxGeometry>
        </mxCell>
        <mxCell id="H8H1YPhDM66-B2P9FcZS-41" value="" style="endArrow=none;html=1;rounded=0;exitX=1;exitY=1;exitDx=0;exitDy=0;entryX=0.097;entryY=0.16;entryDx=0;entryDy=0;entryPerimeter=0;" edge="1" parent="1" source="H8H1YPhDM66-B2P9FcZS-13" target="H8H1YPhDM66-B2P9FcZS-39">
          <mxGeometry relative="1" as="geometry">
            <mxPoint x="729" y="246" as="sourcePoint" />
            <mxPoint x="753" y="290" as="targetPoint" />
          </mxGeometry>
        </mxCell>
        <mxCell id="H8H1YPhDM66-B2P9FcZS-42" value="" style="endArrow=none;html=1;rounded=0;exitX=1;exitY=0;exitDx=0;exitDy=0;entryX=0.288;entryY=0.955;entryDx=0;entryDy=0;entryPerimeter=0;" edge="1" parent="1" source="H8H1YPhDM66-B2P9FcZS-13" target="H8H1YPhDM66-B2P9FcZS-38">
          <mxGeometry relative="1" as="geometry">
            <mxPoint x="880" y="360" as="sourcePoint" />
            <mxPoint x="917" y="383" as="targetPoint" />
          </mxGeometry>
        </mxCell>
        <mxCell id="H8H1YPhDM66-B2P9FcZS-43" value="" style="endArrow=none;html=1;rounded=0;exitX=1;exitY=0.5;exitDx=0;exitDy=0;entryX=0;entryY=0.5;entryDx=0;entryDy=0;" edge="1" parent="1" source="H8H1YPhDM66-B2P9FcZS-14" target="H8H1YPhDM66-B2P9FcZS-9">
          <mxGeometry relative="1" as="geometry">
            <mxPoint x="880" y="360" as="sourcePoint" />
            <mxPoint x="917" y="383" as="targetPoint" />
          </mxGeometry>
        </mxCell>
        <mxCell id="H8H1YPhDM66-B2P9FcZS-44" value="" style="endArrow=none;html=1;rounded=0;exitX=0.656;exitY=1.043;exitDx=0;exitDy=0;entryX=0.5;entryY=0;entryDx=0;entryDy=0;exitPerimeter=0;" edge="1" parent="1" source="H8H1YPhDM66-B2P9FcZS-14" target="H8H1YPhDM66-B2P9FcZS-30">
          <mxGeometry relative="1" as="geometry">
            <mxPoint x="870" y="605" as="sourcePoint" />
            <mxPoint x="920" y="605" as="targetPoint" />
          </mxGeometry>
        </mxCell>
        <mxCell id="H8H1YPhDM66-B2P9FcZS-45" value="" style="endArrow=none;html=1;rounded=0;exitX=0.206;exitY=1.007;exitDx=0;exitDy=0;entryX=0.757;entryY=0.093;entryDx=0;entryDy=0;exitPerimeter=0;entryPerimeter=0;" edge="1" parent="1" source="H8H1YPhDM66-B2P9FcZS-10" target="H8H1YPhDM66-B2P9FcZS-5">
          <mxGeometry relative="1" as="geometry">
            <mxPoint x="808" y="643" as="sourcePoint" />
            <mxPoint x="815" y="670" as="targetPoint" />
          </mxGeometry>
        </mxCell>
        <mxCell id="H8H1YPhDM66-B2P9FcZS-46" value="" style="endArrow=none;html=1;rounded=0;exitX=0;exitY=0.5;exitDx=0;exitDy=0;entryX=1;entryY=0.5;entryDx=0;entryDy=0;" edge="1" parent="1" source="H8H1YPhDM66-B2P9FcZS-10" target="H8H1YPhDM66-B2P9FcZS-4">
          <mxGeometry relative="1" as="geometry">
            <mxPoint x="317" y="480" as="sourcePoint" />
            <mxPoint x="283" y="525" as="targetPoint" />
          </mxGeometry>
        </mxCell>
        <mxCell id="H8H1YPhDM66-B2P9FcZS-47" value="" style="endArrow=none;html=1;rounded=0;exitX=0;exitY=0;exitDx=0;exitDy=0;entryX=1;entryY=1;entryDx=0;entryDy=0;" edge="1" parent="1" source="H8H1YPhDM66-B2P9FcZS-10" target="H8H1YPhDM66-B2P9FcZS-3">
          <mxGeometry relative="1" as="geometry">
            <mxPoint x="280" y="445" as="sourcePoint" />
            <mxPoint x="240" y="450" as="targetPoint" />
          </mxGeometry>
        </mxCell>
        <mxCell id="H8H1YPhDM66-B2P9FcZS-48" value="" style="endArrow=none;html=1;rounded=0;exitX=0.5;exitY=0;exitDx=0;exitDy=0;entryX=0.5;entryY=1;entryDx=0;entryDy=0;" edge="1" parent="1" source="H8H1YPhDM66-B2P9FcZS-10" target="H8H1YPhDM66-B2P9FcZS-6">
          <mxGeometry relative="1" as="geometry">
            <mxPoint x="280" y="410" as="sourcePoint" />
            <mxPoint x="260" y="373" as="targetPoint" />
          </mxGeometry>
        </mxCell>
      </root>
    </mxGraphModel>
  </diagram>
</mxfile>
